<svg width="1383" height="356" viewBox="0 0 1383 356" fill="none" xmlns="http://www.w3.org/2000/svg">
<path fill-rule="evenodd" clip-rule="evenodd" d="M568.46 177.991C568.46 274.069 643.46 352.367 737.277 355.86L762.673 251.649H611.863L820.553 17.8989C797.376 6.43329 771.339 0 743.821 0C646.972 0 568.46 79.6892 568.46 177.991ZM774.509 205.163L795.991 115.29L716.202 205.163H774.509Z" fill="#417CB4"/>
<path d="M41.9606 176.6C33.1606 178.8 30.4607 179.8 23.6607 183.6C10.5607 190.9 2.56064 202.3 0.36064 216.5C-0.33936 220.4 0.160496 227.1 0.360496 245H33.6605C33.3605 217.5 33.4606 219.8 35.3606 216.3C39.6606 207.9 45.4606 205 58.2606 205C69.8606 205 74.4605 207.2 79.7605 215.2L83.5605 221H97.5605C111.261 221 111.561 221 112.361 218.7C112.861 217.3 112.861 214.3 112.361 211.4C108.361 189.7 85.2606 174.6 56.9606 175.1C51.4606 175.2 44.7606 175.9 41.9606 176.6Z" fill="#417CB4"/>
<path d="M41.9605 317.9C33.1605 315.7 30.4605 314.7 23.6605 310.9C10.5605 303.6 2.5605 292.2 0.360496 278C-0.339504 274.1 0.160496 262.9 0.360496 245H33.6605C33.3605 272.5 33.4605 274.7 35.3605 278.2C39.6605 286.6 45.4605 289.5 58.2605 289.5C69.8605 289.5 74.4605 287.3 79.7605 279.3L83.5605 273.5H97.5605C111.26 273.5 111.561 273.5 112.361 275.8C112.861 277.2 112.861 280.2 112.361 283.1C108.361 304.8 85.2605 319.9 56.9605 319.4C51.4605 319.3 44.7605 318.6 41.9605 317.9Z" fill="#417CB4"/>
<path d="M142.061 179.6C140.661 180.999 140.461 188.6 140.461 248.5C140.461 308.4 140.661 316 142.061 317.4C143.461 318.8 149.261 319 191.461 319C233.661 319 239.461 318.8 240.861 317.4C242.161 316.2 242.461 313.5 242.461 304.7C242.461 287.5 245.861 289 206.361 289H173.461V234.5C173.461 181.7 173.361 180 171.561 179C170.461 178.5 163.761 178 156.561 178C146.161 178 143.261 178.299 142.061 179.6Z" fill="#417CB4"/>
<path d="M319.86 322C292.06 322 271.16 309.8 264.86 289.8C263.26 284.3 263.06 279.6 263.06 232.8C263.06 199.6 263.46 181.2 264.06 179.9C265.06 178.2 266.36 178 279.06 178C290.36 178 293.26 178.299 294.46 179.6C295.86 180.999 296.06 186.7 296.06 227.4C296.06 278 296.36 281 301.76 286.2C306.26 290.5 311.06 292 320.26 292L319.86 322Z" fill="#417CB4"/>
<path d="M320.66 322C348.46 322 369.36 309.799 375.66 289.799C377.26 284.299 377.46 279.6 377.46 232.8C377.46 199.6 377.06 181.2 376.46 179.9C375.46 178.2 374.16 178 361.46 178C350.16 178 347.26 178.3 346.06 179.6C344.66 181 344.46 186.7 344.46 227.4C344.46 278 344.16 280.999 338.76 286.199C334.26 290.499 329.46 292 320.26 292L320.66 322Z" fill="#417CB4"/>
<path d="M319.86 322L320.26 292L320.66 322H319.86Z" fill="#417CB4"/>
<path d="M410.06 179.5C408.66 181 408.46 187.4 408.46 248.5C408.46 309.7 408.56 316 410.06 317.5C411.56 319 415.66 319.1 452.36 318.8C487.96 318.4 493.66 318.1 498.46 316.6C511.86 312.2 520.56 305.3 525.26 295.2C527.36 290.6 527.96 287.7 528.26 280.3C528.86 265.8 524.86 256.9 514.36 249.4L509.36 245.7L512.76 243.4C516.76 240.7 521.86 233.1 523.36 227.5C524.96 221.4 524.66 210.2 522.66 204.3C518.96 193.8 510.76 186.2 497.86 181.2L490.96 178.6L451.36 178.2C415.66 177.9 411.56 178 410.06 179.5ZM486.26 209.6C490.86 211.4 492.46 214.3 492.46 220.6C492.46 224.5 491.96 225.7 489.16 228.5C486.26 231.4 485.06 231.9 478.96 232.5C475.06 232.8 471.06 233.2 469.96 233.3C466.96 233.6 465.46 237.8 465.46 246.1C465.46 260.7 466.46 262 478.56 261.9C484.46 261.8 486.16 262.2 489.46 264.4C494.36 267.6 496.26 273.1 494.36 278.8C491.46 288 487.46 289.2 461.46 288.8L441.96 288.5L441.66 248.2L441.46 208H461.96C478.16 208 483.26 208.3 486.26 209.6Z" fill="#417CB4"/>
<path d="M901.268 178.466C891.962 180.19 881.278 186.393 873.236 194.435C866.688 200.869 865.194 203.167 863.011 209.945C860.599 217.527 860.369 219.825 860.484 249.58C860.599 277.497 860.828 281.977 862.781 288.296C867.607 303.691 881.048 315.064 899.774 319.774C913.101 323.221 930.104 322.417 941.018 317.936C960.204 310.009 972.037 295.993 972.496 280.714C972.726 270.604 972.152 270.259 955.953 270.259C943.316 270.259 942.282 270.374 940.673 272.787C939.639 274.165 938.835 276.463 938.835 277.727C938.835 281.633 934.469 287.492 930.219 289.33C928.036 290.249 922.636 290.938 917.926 290.938C906.667 290.938 900.808 288.066 897.247 280.829C894.719 275.659 894.604 274.28 894.604 250.729C894.719 219.25 895.868 215.115 906.093 210.404C912.526 207.417 924.819 207.532 930.793 210.519C933.206 211.783 936.882 215.115 938.72 217.872C940.673 220.629 943.086 223.156 944.005 223.616C945.039 223.961 951.243 224.305 957.906 224.305C968.935 224.305 969.969 224.076 971.462 221.663C972.726 219.71 972.956 217.872 972.152 213.736C968.935 197.193 954.459 183.521 935.159 178.926C927.461 177.088 909.195 176.858 901.268 178.466Z" fill="#B0B0B0"/>
<path d="M1037.41 181.222C1033.96 183.175 1034.88 180.877 1008.57 251.876C985.708 313.569 985.364 314.258 986.283 316.556C986.972 318.279 989.04 318.509 1002.48 318.509C1013.4 318.509 1018.22 318.05 1018.91 317.13C1019.37 316.326 1021.44 311.616 1023.28 306.446L1026.84 297.255L1052.11 296.911L1077.5 296.681L1079.22 301.506C1085.66 319.658 1084.28 318.05 1095.54 319.198C1099.56 319.658 1106.34 319.543 1110.47 319.083C1117.94 318.394 1118.06 318.279 1118.06 314.948C1118.06 313.109 1116.79 308.399 1115.3 304.493C1113.69 300.472 1109.78 290.018 1106.57 281.172C1103.24 272.325 1097.15 255.782 1092.78 244.409C1088.53 233.035 1083.13 218.445 1080.95 212.011C1073.48 190.643 1069.92 183.06 1066.24 181.222C1061.88 178.924 1041.77 178.924 1037.41 181.222ZM1060.04 245.098C1063.71 255.897 1066.36 264.858 1066.01 265.203C1065.78 265.547 1059.23 265.547 1051.65 265.432L1037.64 265.088L1043.5 248.43C1046.71 239.239 1049.81 230.048 1050.39 227.98C1051.08 225.912 1052 224.534 1052.57 224.878C1053.15 225.223 1056.48 234.299 1060.04 245.098Z" fill="#B0B0B0"/>
<path d="M1137.7 181.683L1135.29 184.096L1135.52 250.154C1135.75 297.946 1136.21 316.442 1137.24 317.476C1138.85 319.085 1166.31 318.97 1168.03 317.247C1168.72 316.557 1169.29 297.027 1169.52 263.366L1169.87 210.519H1184.34C1201.23 210.519 1206.52 211.783 1211.11 217.067C1213.98 220.284 1214.56 221.893 1214.56 227.177C1214.56 237.402 1207.44 243.835 1195.83 243.835C1185.84 243.835 1185.38 244.64 1185.72 261.068C1185.95 275.199 1187.33 280.598 1191.81 285.309C1192.61 286.228 1197.78 293.695 1203.3 302.082C1212.26 315.638 1213.75 317.362 1217.66 318.395C1222.48 319.774 1239.03 320.004 1245.92 318.97C1249.6 318.281 1250.17 317.821 1250.17 315.064C1250.17 313.226 1247.99 308.63 1244.77 304.035C1233.86 287.836 1226.74 277.611 1224.09 274.165C1222.71 272.212 1221.45 270.259 1221.45 269.914C1221.45 269.455 1223.06 268.306 1225.13 267.272C1231.45 264.055 1241.1 253.945 1244.77 246.708C1247.87 240.734 1248.33 238.321 1248.79 228.671C1249.14 220.169 1248.79 216.033 1247.3 211.093C1243.05 197.537 1231.79 186.508 1218 182.257C1212.83 180.764 1205.14 180.304 1175.96 179.845C1140.57 179.27 1140.11 179.27 1137.7 181.683Z" fill="#B0B0B0"/>
<path d="M1275.45 270.257C1275.56 308.399 1275.91 315.867 1277.28 317.36C1278.78 318.854 1286.25 319.083 1327.49 319.428C1359.77 319.773 1377 319.428 1379.19 318.624L1382.29 317.36V303.689C1382.29 290.477 1382.17 290.018 1379.76 289.328C1378.27 288.984 1363.1 288.639 1345.87 288.639C1328.75 288.639 1313.93 288.294 1312.9 287.95C1311.41 287.375 1311.06 285.078 1311.06 274.738V262.216H1339.32C1356.56 262.216 1368.39 261.756 1369.77 261.067C1371.72 259.918 1371.95 258.539 1371.95 247.281C1371.95 236.022 1371.72 234.643 1369.77 233.494C1368.39 232.805 1356.56 232.346 1339.32 232.346H1311.06V219.823C1311.06 209.484 1311.41 207.186 1312.9 206.611C1313.93 206.267 1328.75 205.922 1345.87 205.922C1363.1 205.922 1378.27 205.578 1379.76 205.233C1382.17 204.544 1382.29 204.084 1382.29 190.872V177.201L1379.19 175.937C1377 175.133 1359.77 174.788 1327.49 175.133C1286.25 175.478 1278.78 175.708 1277.28 177.201C1275.91 178.695 1275.56 186.162 1275.45 224.304V270.257Z" fill="#B0B0B0"/>
</svg>
